<svg width="125" height="30" viewBox="0 0 125 30" fill="none" xmlns="http://www.w3.org/2000/svg">
<path d="M29.9269 14.0542V18.2155C29.9281 18.6479 29.8437 19.0763 29.6788 19.476C29.5139 19.8757 29.2715 20.2389 28.9658 20.5447C28.66 20.8504 28.2968 21.0928 27.8971 21.2577C27.4974 21.4227 27.069 21.507 26.6366 21.5058H25.3521C25.2017 21.5068 25.0545 21.4618 24.9303 21.3769C24.8062 21.292 24.7108 21.1712 24.6571 21.0307L24.4196 20.4149C24.3978 20.3596 24.3901 20.2998 24.397 20.2408C24.4039 20.1818 24.4253 20.1255 24.4592 20.0767C24.4932 20.028 24.5386 19.9884 24.5916 19.9614C24.6445 19.9345 24.7033 19.921 24.7627 19.9222H26.5838C27.0489 19.9199 27.4942 19.7335 27.8223 19.4038C28.1504 19.0741 28.3345 18.6278 28.3345 18.1627V14.3797C28.3367 14.3068 28.3604 14.2361 28.4027 14.1766C28.4449 14.1171 28.5039 14.0714 28.5721 14.0454L29.4342 13.7111C29.4895 13.6915 29.5487 13.6854 29.6069 13.6933C29.665 13.7011 29.7205 13.7227 29.7686 13.7562C29.8168 13.7898 29.8562 13.8343 29.8837 13.8861C29.9113 13.9379 29.9261 13.9955 29.9269 14.0542Z" fill="#3064C0"/>
<path d="M49.1145 11.1774H48.7978C47.5398 11.1774 46.4928 12.2067 46.5104 13.456C46.5219 14.041 46.7625 14.5981 47.1803 15.0077C47.5981 15.4173 48.1599 15.6467 48.745 15.6466H49.5808C49.6928 15.6466 49.8002 15.6911 49.8794 15.7703C49.9586 15.8495 50.0031 15.9569 50.0031 16.0689C50.0031 16.1809 49.9586 16.2883 49.8794 16.3675C49.8002 16.4467 49.6928 16.4912 49.5808 16.4912H45.7978C45.5722 16.4889 45.3565 16.3982 45.1969 16.2387C45.0374 16.0791 44.9467 15.8634 44.9444 15.6378V14.0542C44.9436 13.9955 44.9288 13.9379 44.9013 13.8861C44.8738 13.8343 44.8343 13.7898 44.7862 13.7562C44.738 13.7227 44.6826 13.7011 44.6244 13.6933C44.5663 13.6854 44.5071 13.6915 44.4518 13.7111L43.5808 14.0454C43.5149 14.0737 43.4584 14.1202 43.4179 14.1794C43.3774 14.2386 43.3546 14.308 43.3521 14.3797V18.1627C43.3521 18.6278 43.1679 19.0741 42.8398 19.4038C42.5118 19.7335 42.0665 19.9199 41.6013 19.9222H39.7714C39.7128 19.9225 39.6551 19.937 39.6033 19.9645C39.5515 19.9921 39.5073 20.0319 39.4743 20.0804C39.4414 20.1289 39.4208 20.1848 39.4143 20.243C39.4078 20.3013 39.4157 20.3603 39.4371 20.4149L39.6747 21.0307C39.7273 21.172 39.8224 21.2935 39.9468 21.3785C40.0712 21.4636 40.219 21.508 40.3697 21.5058H41.6541C42.5268 21.5058 43.3637 21.1592 43.9807 20.5421C44.5978 19.925 44.9444 19.0881 44.9444 18.2155V17.8284C45.2777 17.9953 45.6451 18.0826 46.0178 18.0835H49.3345C49.9808 18.0835 50.6006 17.8268 51.0577 17.3698C51.5147 16.9127 51.7714 16.2929 51.7714 15.6466V13.8343C51.7714 13.1296 51.4915 12.4538 50.9932 11.9556C50.495 11.4573 49.8192 11.1774 49.1145 11.1774ZM50.1791 14.0542H48.7714C48.6051 14.0571 48.4438 13.9971 48.3198 13.8862C48.1958 13.7753 48.1183 13.6216 48.1028 13.456C48.0985 13.3643 48.1126 13.2726 48.1444 13.1865C48.1761 13.1004 48.2248 13.0215 48.2876 12.9545C48.4109 12.8368 48.5746 12.7708 48.745 12.7697H48.8946C49.2353 12.7697 49.562 12.9051 49.8028 13.146C50.0437 13.3868 50.1791 13.7135 50.1791 14.0542Z" fill="#3064C0"/>
<path d="M41.9445 9.95453V17.7141C41.9457 17.7622 41.9372 17.81 41.9196 17.8548C41.902 17.8996 41.8756 17.9404 41.842 17.9748C41.8084 18.0093 41.7683 18.0366 41.7239 18.0553C41.6796 18.074 41.6319 18.0836 41.5838 18.0836H40.7216C40.6735 18.0836 40.6259 18.074 40.5816 18.0553C40.5372 18.0366 40.497 18.0093 40.4634 17.9748C40.4298 17.9404 40.4034 17.8996 40.3858 17.8548C40.3682 17.81 40.3598 17.7622 40.3609 17.7141V10.2888C40.36 10.2163 40.3814 10.1453 40.4224 10.0855C40.4633 10.0256 40.5218 9.97991 40.5897 9.95453L41.4519 9.62022C41.5064 9.59877 41.5654 9.59094 41.6237 9.59743C41.682 9.60391 41.7378 9.62452 41.7864 9.65745C41.8349 9.69038 41.8747 9.73464 41.9022 9.78641C41.9298 9.83818 41.9443 9.89589 41.9445 9.95453Z" fill="#3064C0"/>
<path d="M35.5485 18.0836H32.3021C32.1497 18.0832 32.001 18.0368 31.8754 17.9504C31.7498 17.8641 31.6533 17.7418 31.5983 17.5997L31.3608 16.9926C31.3395 16.9368 31.332 16.8767 31.339 16.8174C31.346 16.7581 31.3672 16.7013 31.401 16.652C31.4347 16.6027 31.4799 16.5623 31.5326 16.5343C31.5854 16.5063 31.6442 16.4915 31.7039 16.4912H35.5925C35.666 16.4894 35.7376 16.4666 35.7987 16.4256C35.8598 16.3846 35.908 16.327 35.9375 16.2596C35.9671 16.1922 35.9768 16.1178 35.9655 16.045C35.9543 15.9723 35.9225 15.9043 35.874 15.8489L32.8828 12.5938C32.818 12.5213 32.7844 12.426 32.7893 12.3289C32.7942 12.2317 32.8373 12.1404 32.9092 12.0748L33.5338 11.4941C33.6064 11.4293 33.7016 11.3957 33.7988 11.4006C33.896 11.4056 33.9873 11.4486 34.0529 11.5205L37.0177 14.7492C38.1878 16.0249 37.2816 18.0836 35.5485 18.0836Z" fill="#3064C0"/>
<path d="M26.8035 17.1245L26.3812 17.4852C25.9414 17.8656 25.3792 18.0749 24.7977 18.0747H20.3373C19.9211 18.0754 19.5097 17.9854 19.132 17.8107V18.1538C19.132 18.594 19.0453 19.0299 18.8768 19.4366C18.7084 19.8432 18.4615 20.2127 18.1502 20.524C17.839 20.8352 17.4695 21.0821 17.0628 21.2506C16.6561 21.419 16.2202 21.5057 15.7801 21.5057H13.3519C12.9114 21.5069 12.475 21.421 12.0678 21.253C11.6606 21.0849 11.2907 20.8381 10.9792 20.5266C10.6677 20.2151 10.4208 19.8451 10.2528 19.4379C10.0848 19.0307 9.99885 18.5943 10 18.1538V15.8752C10.0003 15.803 10.0222 15.7325 10.063 15.6729C10.1038 15.6133 10.1615 15.5673 10.2288 15.5409L11.0909 15.2066C11.1462 15.1871 11.2054 15.1809 11.2636 15.1888C11.3217 15.1966 11.3771 15.2182 11.4253 15.2518C11.4734 15.2853 11.5129 15.3298 11.5404 15.3816C11.568 15.4334 11.5828 15.4911 11.5836 15.5497V18.2682C11.5836 18.7069 11.7578 19.1275 12.068 19.4377C12.3782 19.7479 12.7989 19.9222 13.2375 19.9222H15.8944C16.3316 19.9198 16.75 19.7446 17.0583 19.4346C17.3666 19.1247 17.5396 18.7053 17.5396 18.2682V14.3796C17.5399 14.3074 17.5618 14.2369 17.6026 14.1773C17.6434 14.1177 17.7011 14.0717 17.7683 14.0453L18.6305 13.711C18.6863 13.6897 18.7464 13.6822 18.8058 13.6892C18.8651 13.6962 18.9218 13.7175 18.9711 13.7512C19.0204 13.7849 19.0608 13.8301 19.0888 13.8829C19.1168 13.9356 19.1316 13.9944 19.132 14.0541V15.5409C19.132 15.7914 19.2309 16.0318 19.4072 16.2097C19.5834 16.3876 19.8229 16.4888 20.0733 16.4911H26.566C26.6397 16.4908 26.7117 16.513 26.7723 16.5549C26.833 16.5967 26.8793 16.6561 26.9052 16.7251C26.9311 16.7941 26.9352 16.8694 26.917 16.9408C26.8988 17.0122 26.8592 17.0763 26.8035 17.1245Z" fill="#3064C0"/>
<path d="M49.1143 10.4824C49.6633 10.4824 50.1084 10.0373 50.1084 9.48828C50.1084 8.93923 49.6633 8.49414 49.1143 8.49414C48.5652 8.49414 48.1201 8.93923 48.1201 9.48828C48.1201 10.0373 48.5652 10.4824 49.1143 10.4824Z" fill="#3064C0"/>
<path d="M94.3611 22.4341C93.3318 22.8652 92.2849 23.2963 91.2379 23.7801C91.1649 23.8082 91.0875 23.8231 91.0092 23.8241C90.932 23.8154 90.8572 23.7915 90.7893 23.7537C90.7182 23.7089 90.6581 23.6488 90.6133 23.5778C90.5701 23.5084 90.5431 23.4303 90.5341 23.349L90.4374 21.3784C90.4264 21.2803 90.448 21.1814 90.4989 21.0968C90.5485 21.0106 90.6218 20.9403 90.7101 20.8945C91.713 20.393 92.7335 19.9356 93.7365 19.4869C93.8077 19.4531 93.8872 19.4409 93.9652 19.4517C94.0437 19.4607 94.119 19.4878 94.1852 19.5309C94.2574 19.5662 94.3184 19.6211 94.3611 19.6892C94.4054 19.7541 94.4299 19.8306 94.4315 19.9092L94.6602 21.9062C94.6716 22.0156 94.6501 22.1258 94.5987 22.2229C94.5472 22.3195 94.463 22.3944 94.3611 22.4341Z" fill="#4BA0EA"/>
<path d="M93.9386 18.8534C92.9884 19.2581 92.0119 19.7155 91.0353 20.1642C90.9649 20.2005 90.8855 20.2158 90.8066 20.2082C90.7283 20.2052 90.6522 20.1809 90.5867 20.1378C90.5123 20.1014 90.4509 20.0431 90.4107 19.9707C90.365 19.8999 90.3405 19.8174 90.3403 19.7331L90.2172 17.7713C90.2081 17.6722 90.2329 17.5729 90.2875 17.4897C90.3311 17.402 90.4022 17.3309 90.4899 17.2874C91.4136 16.8035 92.3638 16.3548 93.3139 15.9238L93.5075 15.871C93.5922 15.8772 93.6746 15.9016 93.749 15.9426C93.8234 15.9836 93.8881 16.0402 93.9386 16.1085C93.9839 16.173 94.0084 16.2497 94.0089 16.3285L94.2641 18.3255C94.2724 18.4369 94.2447 18.5479 94.1849 18.6422C94.132 18.7409 94.0441 18.8162 93.9386 18.8534Z" fill="#4BA0EA"/>
<path d="M93.8328 14.736C93.8431 14.8453 93.8218 14.9553 93.7713 15.0527C93.7144 15.1448 93.6318 15.2182 93.5337 15.2639L90.8592 16.5308C90.7852 16.5666 90.7039 16.5847 90.6217 16.5835C90.5397 16.5829 90.4587 16.5649 90.3842 16.5308C90.3135 16.4892 90.2533 16.432 90.2082 16.3636C90.1638 16.2922 90.1394 16.2101 90.1378 16.1261L90.0147 14.1554C90.0141 14.0638 90.0352 13.9733 90.0762 13.8915C90.1236 13.8147 90.1865 13.7487 90.261 13.6979C91.1496 13.1964 92.0205 12.739 92.8827 12.3343L93.1114 12.2903L93.3314 12.3343C93.4069 12.3763 93.4704 12.4369 93.5161 12.5102C93.5609 12.5805 93.5936 12.6579 93.6129 12.739L93.8328 14.736Z" fill="#4BA0EA"/>
<path d="M96.9823 10.1437C96.1554 10.4164 95.3372 10.7243 94.5366 11.0498C94.4672 11.0792 94.3917 11.0912 94.3167 11.085C94.2451 11.082 94.1754 11.0608 94.1143 11.0235C94.0486 10.9824 93.9917 10.9285 93.9472 10.8651C93.9051 10.7975 93.8754 10.7231 93.8592 10.6452L93.6128 8.6041C93.5972 8.4946 93.6189 8.38305 93.6744 8.28738C93.726 8.18897 93.8099 8.11131 93.912 8.06744C94.6862 7.71553 95.4867 7.41641 96.2873 7.13489H96.4545L96.7096 7.18767C96.7725 7.22555 96.8266 7.27656 96.868 7.33723C96.9134 7.39649 96.9436 7.46596 96.9559 7.53958L97.3079 9.58943C97.3269 9.70464 97.3051 9.82288 97.2463 9.92374C97.1843 10.0236 97.0917 10.1007 96.9823 10.1437Z" fill="#4BA0EA"/>
<path d="M93.4107 11.1555C93.4218 11.2592 93.4002 11.3637 93.3491 11.4546C93.2967 11.5483 93.2124 11.6201 93.1116 11.6569C92.2846 12.0352 91.4664 12.4663 90.6658 12.8974C90.5882 12.9422 90.5003 12.9664 90.4107 12.9678C90.3237 12.9673 90.2385 12.943 90.1644 12.8974C90.0933 12.8526 90.0332 12.7925 89.9884 12.7215C89.9443 12.6532 89.9199 12.574 89.918 12.4927L89.8125 10.5484C89.7953 10.458 89.8109 10.3645 89.8565 10.2845C89.8937 10.2005 89.959 10.1321 90.0412 10.091C90.8418 9.60709 91.66 9.15841 92.4606 8.75372C92.5317 8.71859 92.61 8.70051 92.6893 8.70093C92.7657 8.70155 92.8409 8.71961 92.9092 8.75372C92.9823 8.7914 93.0456 8.84563 93.094 8.91208C93.1411 8.97697 93.1713 9.05255 93.182 9.13202L93.4107 11.1555Z" fill="#4BA0EA"/>
<path d="M113.012 17.613C112.974 17.6736 112.927 17.7272 112.871 17.7713C112.809 17.8077 112.74 17.8316 112.668 17.8417C111.595 17.9473 110.522 18.0968 109.449 18.2464C109.329 18.2741 109.203 18.2553 109.097 18.1936C108.992 18.1314 108.911 18.0352 108.868 17.9209L108.296 16.0206C108.275 15.9491 108.272 15.8736 108.287 15.8007C108.296 15.7276 108.324 15.6581 108.366 15.5983C108.399 15.5317 108.451 15.4765 108.516 15.4399C108.574 15.396 108.645 15.3714 108.718 15.3696C109.765 15.22 110.839 15.1144 111.894 15.0441H111.938C112.039 15.0408 112.139 15.0718 112.22 15.132C112.3 15.1928 112.361 15.2752 112.396 15.3696L113.064 17.1643C113.096 17.2371 113.108 17.3169 113.099 17.3958C113.089 17.4746 113.059 17.5495 113.012 17.613Z" fill="#4BA0EA"/>
<path d="M103.37 19.4869L100.299 20.3403C100.232 20.3662 100.159 20.3753 100.088 20.3667C100.014 20.358 99.9417 20.334 99.8769 20.2963C99.771 20.2083 99.6917 20.0926 99.6481 19.962L99.305 17.8945C99.2808 17.7737 99.3028 17.6481 99.3666 17.5426C99.4334 17.4439 99.5332 17.3721 99.6481 17.3403C100.625 17.0324 101.654 16.7333 102.648 16.5045H102.771C102.887 16.5019 103 16.5426 103.088 16.6189C103.175 16.6925 103.232 16.7961 103.246 16.9092L103.748 18.9063C103.761 18.9681 103.761 19.0318 103.749 19.0937C103.737 19.1556 103.713 19.2145 103.677 19.267C103.643 19.3221 103.598 19.3699 103.545 19.4077C103.493 19.4454 103.433 19.4724 103.37 19.4869Z" fill="#4BA0EA"/>
<path d="M98.8564 20.7977C97.8535 21.1232 96.8066 21.5015 95.8037 21.8798C95.7325 21.9135 95.653 21.9258 95.5749 21.915C95.4965 21.906 95.4212 21.8789 95.355 21.8358C95.2961 21.7928 95.2429 21.7426 95.1966 21.6862C95.1532 21.6226 95.1232 21.5508 95.1086 21.4751L94.8799 19.434C94.8686 19.3247 94.89 19.2145 94.9415 19.1173C94.9994 19.0228 95.0856 18.949 95.1878 18.9062C96.182 18.5015 97.1849 18.1232 98.179 17.7889C98.2507 17.77 98.3252 17.7641 98.399 17.7713C98.4704 17.7814 98.5391 17.8053 98.6013 17.8417C98.6642 17.8795 98.7183 17.9306 98.7597 17.9912C98.7961 18.0535 98.82 18.1222 98.8301 18.1936L99.2084 20.2434C99.2254 20.3625 99.2005 20.4838 99.138 20.5865C99.074 20.6898 98.9735 20.7651 98.8564 20.7977Z" fill="#4BA0EA"/>
<path d="M107.249 14.8856C107.214 14.9454 107.166 14.9966 107.109 15.0351C107.055 15.0777 106.991 15.1051 106.924 15.1143C105.947 15.2639 104.953 15.4662 104.003 15.6686C103.937 15.6845 103.868 15.6875 103.801 15.6774C103.738 15.667 103.678 15.6429 103.625 15.607C103.568 15.575 103.52 15.5297 103.484 15.475C103.44 15.4224 103.413 15.3582 103.405 15.2903L102.93 13.2932C102.903 13.2323 102.894 13.1654 102.903 13.0996C102.914 13.0336 102.938 12.9704 102.974 12.9144C103.011 12.8583 103.058 12.8105 103.115 12.7741C103.168 12.7316 103.232 12.7042 103.299 12.695C104.249 12.4926 105.226 12.3167 106.176 12.1847H106.246C106.354 12.1858 106.458 12.2196 106.546 12.2815C106.624 12.3506 106.685 12.4383 106.722 12.5366L107.293 14.4633C107.32 14.5333 107.329 14.6089 107.32 14.6832C107.31 14.7546 107.286 14.8233 107.249 14.8856Z" fill="#4BA0EA"/>
<path d="M97.6071 13.698C96.7274 13.9795 95.83 14.305 94.959 14.6657C94.886 14.6938 94.8085 14.7087 94.7303 14.7097C94.653 14.701 94.5783 14.677 94.5103 14.6393C94.4488 14.5925 94.3954 14.5361 94.352 14.4722C94.3155 14.4068 94.2916 14.3352 94.2816 14.261L94.0353 12.2112C94.0206 12.1026 94.0419 11.9922 94.0959 11.8969C94.15 11.8015 94.2337 11.7265 94.3344 11.6833C95.179 11.3314 96.0587 10.9707 96.9297 10.698H97.0793C97.1677 10.6888 97.2568 10.7073 97.3344 10.7507C97.3973 10.7886 97.4513 10.8396 97.4927 10.9003C97.536 10.9608 97.566 11.0298 97.5807 11.1027L97.9326 13.1437C97.9483 13.2617 97.9268 13.3816 97.871 13.4868C97.8091 13.5847 97.7162 13.659 97.6071 13.698Z" fill="#4BA0EA"/>
<path d="M98.232 17.2346L95.3815 18.2728C95.3111 18.309 95.2317 18.3243 95.1528 18.3168C95.0742 18.3152 94.9978 18.2907 94.9329 18.2464C94.8716 18.2027 94.8181 18.1492 94.7745 18.088C94.7367 18.0207 94.7156 17.9453 94.7129 17.8681L94.4578 15.827C94.4459 15.7177 94.4674 15.6073 94.5194 15.5103C94.5731 15.4135 94.6563 15.3365 94.7569 15.2904C95.6807 14.9121 96.6308 14.5602 97.5546 14.2346C97.6962 14.2003 97.8453 14.2158 97.9768 14.2786C98.038 14.3223 98.0916 14.3758 98.1352 14.437C98.173 14.4986 98.197 14.5676 98.2056 14.6393L98.5839 16.6804C98.5981 16.7992 98.5708 16.9192 98.5067 17.0202C98.4426 17.1212 98.3455 17.197 98.232 17.2346Z" fill="#4BA0EA"/>
<path d="M102.006 12.2904C101.971 12.3454 101.926 12.3932 101.874 12.4312C101.824 12.4747 101.763 12.5023 101.698 12.5103C100.8 12.7391 99.903 12.9678 99.0321 13.2494C98.8921 13.2718 98.7486 13.2437 98.6274 13.1702C98.5701 13.1349 98.5219 13.0867 98.4866 13.0294C98.444 12.9761 98.4167 12.9123 98.4074 12.8447L98.0291 10.7948C98.0049 10.6739 98.0269 10.5484 98.0907 10.4429C98.1548 10.3325 98.2587 10.2507 98.381 10.2142C99.2256 9.96783 100.105 9.73909 100.976 9.53674H101.1C101.216 9.53408 101.329 9.57487 101.416 9.65111C101.503 9.72475 101.56 9.8283 101.575 9.94144L102.076 11.9297C102.093 12.0544 102.068 12.1812 102.006 12.2904Z" fill="#4BA0EA"/>
<path d="M114.244 20.8769C114.203 20.9378 114.153 20.9913 114.094 21.0352C114.035 21.0806 113.965 21.1108 113.892 21.1232C112.766 21.2552 111.613 21.4311 110.47 21.6335C110.35 21.6555 110.227 21.6302 110.126 21.5631C110.021 21.4977 109.945 21.3934 109.915 21.2728L109.317 19.3813C109.301 19.3091 109.298 19.2346 109.308 19.1613C109.323 19.0857 109.353 19.0138 109.396 18.9502C109.432 18.888 109.484 18.8363 109.546 18.8006C109.605 18.759 109.675 18.7347 109.748 18.7302C110.839 18.5543 111.992 18.4223 113.091 18.2992H113.144C113.245 18.2972 113.344 18.3281 113.426 18.3871C113.511 18.4469 113.578 18.5291 113.619 18.6247L114.288 20.4458C114.321 20.5139 114.334 20.5905 114.323 20.6657C114.315 20.7418 114.288 20.8146 114.244 20.8769Z" fill="#4BA0EA"/>
<path d="M101.179 8.80652C101.141 8.86181 101.093 8.90955 101.038 8.94729C100.985 8.98986 100.921 9.01722 100.853 9.02647C100.026 9.22881 99.208 9.43116 98.4074 9.68629C98.2708 9.72268 98.1254 9.70371 98.0027 9.6335C97.9405 9.59779 97.8888 9.54617 97.8531 9.48394C97.813 9.42349 97.7888 9.35389 97.7827 9.2816L97.4044 7.24054C97.3774 7.11709 97.3989 6.98799 97.4644 6.87992C97.5299 6.77185 97.6344 6.69308 97.7564 6.6599C98.5569 6.42236 99.3575 6.22001 100.149 6.05286H100.255C100.37 6.0469 100.483 6.0846 100.572 6.15843C100.667 6.2331 100.732 6.33911 100.756 6.45755L101.223 8.44582C101.256 8.56713 101.241 8.69687 101.179 8.80652Z" fill="#4BA0EA"/>
<path d="M102.525 16.003L99.657 16.786C99.5884 16.8049 99.5168 16.8109 99.4459 16.8036C99.3773 16.7935 99.3114 16.7696 99.2523 16.7332C99.197 16.6955 99.1493 16.6477 99.1116 16.5924C99.069 16.5358 99.0418 16.4691 99.0324 16.3989L98.6541 14.3578C98.6372 14.2359 98.662 14.1119 98.7245 14.0059C98.79 13.9002 98.8892 13.8197 99.006 13.7772C99.9298 13.4956 100.88 13.2493 101.804 13.0206C101.867 13.0032 101.933 12.999 101.998 13.0081C102.063 13.0171 102.126 13.0394 102.182 13.0734C102.297 13.1402 102.385 13.2464 102.428 13.3725L102.903 15.3959C102.919 15.4592 102.922 15.525 102.912 15.5895C102.905 15.6575 102.884 15.7234 102.851 15.783C102.813 15.8383 102.765 15.8861 102.71 15.9238C102.653 15.9606 102.591 15.9874 102.525 16.003Z" fill="#4BA0EA"/>
<path d="M106.22 11.5074C106.129 11.6185 106.006 11.6985 105.868 11.7361C104.944 11.8593 104.047 12.0089 103.15 12.2112C103.017 12.2346 102.88 12.2055 102.769 12.13C102.657 12.0545 102.579 11.9384 102.551 11.8065L102.076 9.83584C102.051 9.69687 102.075 9.55325 102.147 9.43115C102.187 9.37788 102.234 9.33049 102.287 9.29039C102.342 9.24951 102.405 9.22235 102.472 9.21121C103.352 9.05285 104.249 8.90329 105.147 8.80652H105.199C105.307 8.80765 105.411 8.8414 105.499 8.90329C105.589 8.9673 105.659 9.05582 105.701 9.15842L106.273 11.0763C106.292 11.148 106.298 11.2225 106.29 11.2963C106.283 11.371 106.259 11.4432 106.22 11.5074Z" fill="#4BA0EA"/>
<path d="M105.173 8.09392C105.14 8.15942 105.089 8.21498 105.028 8.2551C104.966 8.29523 104.895 8.31852 104.821 8.32266L102.305 8.72735C102.243 8.74067 102.18 8.7413 102.118 8.7292C102.056 8.7171 101.997 8.69253 101.945 8.65697C101.835 8.58566 101.757 8.47571 101.725 8.34905L101.25 6.37838C101.222 6.23832 101.25 6.09303 101.329 5.97369C101.366 5.91562 101.414 5.86493 101.469 5.82413C101.526 5.78735 101.589 5.76057 101.654 5.74495C102.472 5.62178 103.299 5.49861 104.126 5.41943H104.179C104.284 5.42065 104.385 5.45449 104.469 5.51621C104.556 5.5787 104.618 5.66872 104.645 5.77134L105.252 7.68923C105.272 7.82918 105.244 7.97163 105.173 8.09392Z" fill="#4BA0EA"/>
<path d="M111.798 14.3314C111.758 14.3989 111.7 14.4538 111.631 14.4897C111.568 14.5313 111.495 14.5555 111.42 14.5601C110.417 14.6393 109.396 14.7625 108.393 14.8856C108.275 14.9093 108.153 14.8873 108.05 14.824C107.949 14.7557 107.877 14.6522 107.848 14.5337L107.276 12.6686C107.249 12.5955 107.24 12.5171 107.25 12.4399C107.269 12.3671 107.302 12.2985 107.346 12.2375C107.378 12.1706 107.427 12.1131 107.487 12.0704C107.55 12.0289 107.623 12.0074 107.698 12.0088C108.692 11.8856 109.695 11.8064 110.698 11.7537H110.716C110.819 11.763 110.918 11.7962 111.006 11.8504C111.089 11.9107 111.153 11.993 111.191 12.088L111.842 13.8739C111.878 13.9477 111.893 14.0297 111.886 14.1114C111.875 14.1909 111.845 14.2665 111.798 14.3314Z" fill="#4BA0EA"/>
<path d="M108.296 18.2728C108.26 18.335 108.209 18.3866 108.147 18.4223C108.087 18.4652 108.017 18.4925 107.944 18.5015L104.821 19.1262C104.759 19.1438 104.694 19.1483 104.631 19.1392C104.567 19.1301 104.506 19.1076 104.452 19.0734C104.395 19.0422 104.345 18.9994 104.306 18.9479C104.266 18.8964 104.238 18.8373 104.223 18.7742L103.748 16.786C103.729 16.6488 103.747 16.5091 103.801 16.3813C103.841 16.3215 103.893 16.2704 103.953 16.2311C104.014 16.1918 104.081 16.1651 104.152 16.1525C105.147 15.9238 106.176 15.7479 107.196 15.5719H107.267C107.374 15.5719 107.479 15.6057 107.566 15.6687C107.654 15.7296 107.716 15.8202 107.742 15.9238L108.349 17.8681C108.368 17.9368 108.374 18.0084 108.367 18.0792C108.356 18.1479 108.332 18.2137 108.296 18.2728Z" fill="#4BA0EA"/>
<path d="M94.7563 26.0234C93.6566 26.4545 92.5305 26.912 91.4396 27.3871C91.3651 27.4202 91.283 27.4323 91.2021 27.4223C91.1237 27.4081 91.0489 27.3782 90.9824 27.3344C90.9159 27.2905 90.8589 27.2336 90.815 27.1671C90.7705 27.0952 90.7434 27.0138 90.7358 26.9296L90.639 24.9677C90.628 24.8668 90.6496 24.7651 90.7006 24.6774C90.748 24.5915 90.8221 24.5236 90.9118 24.4838C92.0115 23.9824 93.0848 23.4985 94.1581 23.0674C94.2311 23.0393 94.3086 23.0244 94.3868 23.0234C94.4649 23.0281 94.5405 23.0523 94.6068 23.0938C94.6764 23.1297 94.7343 23.1846 94.7739 23.2522C94.817 23.3184 94.8441 23.3937 94.8531 23.4721L95.0818 25.4956C95.0946 25.6073 95.0695 25.7201 95.0105 25.8159C94.9514 25.9116 94.8619 25.9847 94.7563 26.0234Z" fill="#4BA0EA"/>
<path d="M110.566 11.0499C110.539 11.1224 110.485 11.1821 110.416 11.217C110.351 11.2587 110.274 11.2801 110.196 11.2786L107.372 11.5337C107.254 11.5421 107.137 11.5113 107.038 11.446C106.94 11.3808 106.865 11.2848 106.827 11.173L106.246 9.30792C106.223 9.23406 106.217 9.15576 106.229 9.07918C106.244 9.00497 106.277 8.93559 106.325 8.87683C106.358 8.80786 106.41 8.74981 106.475 8.70968C106.541 8.66891 106.617 8.64757 106.695 8.6481C107.619 8.57771 108.551 8.52493 109.493 8.49854C109.597 8.49976 109.699 8.53359 109.783 8.59531C109.865 8.65215 109.929 8.73159 109.968 8.82405L110.619 10.5924C110.654 10.6662 110.669 10.7482 110.663 10.8299C110.653 10.9112 110.619 10.9877 110.566 11.0499Z" fill="#4BA0EA"/>
<path d="M90.0852 23.9825C90.0849 24.0818 90.0575 24.1791 90.006 24.264C89.9524 24.348 89.8762 24.4151 89.786 24.4576C88.4928 25.0646 87.1643 25.742 85.8711 26.4546V23.525C86.9972 22.8652 88.1233 22.2406 89.2406 21.6335C89.3118 21.5902 89.3953 21.5717 89.4781 21.5807C89.5639 21.5801 89.6474 21.6079 89.7157 21.6599C89.7887 21.6976 89.852 21.7518 89.9004 21.8183C89.9414 21.8907 89.9626 21.9726 89.962 22.0558L90.0852 23.9825Z" fill="#4BA0EA"/>
<path d="M89.8652 20.393C89.8756 20.4939 89.8541 20.5954 89.8036 20.6834C89.7563 20.7692 89.6821 20.8372 89.5925 20.8769C88.3696 21.5279 87.1204 22.2142 85.8711 22.9444V20.0411C86.918 19.3549 87.9649 18.7039 89.0119 18.0969C89.0918 18.059 89.1786 18.038 89.267 18.0353C89.3526 18.0379 89.4366 18.0589 89.5133 18.0969C89.5867 18.1426 89.6472 18.2061 89.6893 18.2816C89.7339 18.3567 89.7609 18.4409 89.7685 18.5279L89.8652 20.393Z" fill="#4BA0EA"/>
<path d="M90.2875 27.5103C90.2882 27.6153 90.2609 27.7185 90.2083 27.8094C90.1583 27.9005 90.0815 27.9742 89.9884 28.0205C88.616 28.6246 87.2435 29.2727 85.8711 29.9648V27.0352C87.0676 26.3754 88.2641 25.7507 89.4429 25.1701C89.5172 25.1351 89.5984 25.1171 89.6805 25.1173C89.7628 25.1284 89.8429 25.1522 89.918 25.1877C89.9886 25.2302 90.0463 25.291 90.0852 25.3636C90.1284 25.433 90.1554 25.5112 90.1644 25.5924L90.2875 27.5103Z" fill="#4BA0EA"/>
<path d="M109.317 21.6598C109.286 21.722 109.241 21.7761 109.185 21.8182C109.13 21.8597 109.067 21.8896 109 21.9062C107.901 22.1085 106.775 22.3636 105.675 22.6188C105.612 22.6347 105.546 22.6377 105.481 22.6276C105.412 22.6216 105.345 22.5973 105.288 22.5572C105.233 22.5227 105.185 22.4779 105.147 22.4252C105.112 22.3686 105.088 22.3059 105.077 22.2405L104.575 20.2434C104.561 20.1783 104.561 20.111 104.575 20.0458C104.588 19.9807 104.615 19.9191 104.654 19.8651C104.683 19.8064 104.725 19.7552 104.777 19.7156C104.829 19.6759 104.889 19.6488 104.953 19.6364C106.053 19.3812 107.144 19.1525 108.226 18.9765C108.348 18.958 108.472 18.9831 108.577 19.0476C108.681 19.112 108.76 19.2116 108.798 19.3285L109.37 21.2551C109.396 21.3191 109.405 21.3889 109.396 21.4575C109.387 21.5305 109.36 21.6001 109.317 21.6598Z" fill="#4BA0EA"/>
<path d="M104.223 22.9971C103.123 23.2786 102.024 23.5865 100.924 23.9033C100.86 23.9296 100.79 23.9387 100.722 23.9297C100.651 23.9203 100.585 23.893 100.528 23.8505C100.463 23.815 100.409 23.7635 100.37 23.7009C100.324 23.6417 100.294 23.5722 100.282 23.4986L99.9299 21.4575C99.9051 21.3338 99.927 21.2053 99.9914 21.0968C100.057 20.9891 100.16 20.9104 100.282 20.8769L103.502 19.9883H103.598C103.695 19.9874 103.79 20.0149 103.871 20.0675C103.929 20.1037 103.979 20.1511 104.019 20.207C104.058 20.2629 104.086 20.3262 104.1 20.393L104.575 22.3901C104.599 22.5166 104.577 22.6475 104.513 22.7596C104.447 22.8701 104.345 22.9541 104.223 22.9971Z" fill="#4BA0EA"/>
<path d="M99.4811 24.3607C98.4078 24.7126 97.2817 25.0909 96.2084 25.4956C96.1338 25.515 96.0563 25.5209 95.9797 25.5132C95.9027 25.5032 95.8282 25.4794 95.7597 25.4428C95.6968 25.4004 95.6454 25.3429 95.6102 25.2757C95.5659 25.2134 95.5386 25.1406 95.531 25.0645L95.311 23.0235C95.2928 22.9121 95.3113 22.7979 95.3638 22.698C95.4192 22.6013 95.5062 22.5268 95.6102 22.4868L98.8301 21.3519H98.9797C99.0707 21.3524 99.1595 21.3799 99.2348 21.4311C99.2941 21.4631 99.3453 21.5082 99.3844 21.5631C99.4286 21.6208 99.4615 21.6865 99.4811 21.7566L99.833 23.7977C99.8494 23.9179 99.8232 24.04 99.7589 24.1428C99.6946 24.2457 99.5963 24.3228 99.4811 24.3607Z" fill="#4BA0EA"/>
<path d="M89.6629 16.8299C89.672 16.9269 89.6537 17.0244 89.6101 17.1115C89.5674 17.1968 89.4999 17.2673 89.4165 17.3138C88.2201 17.9766 87.0382 18.6833 85.8711 19.434V16.5308C86.8388 15.8446 87.8154 15.1672 88.8183 14.5601C88.8877 14.5169 88.9658 14.4899 89.047 14.481C89.132 14.4806 89.216 14.4986 89.2934 14.5337C89.3695 14.5789 89.433 14.6424 89.4781 14.7185C89.5291 14.7912 89.5595 14.8763 89.5661 14.9648L89.6629 16.8299Z" fill="#4BA0EA"/>
<path d="M100.326 5.34023C100.289 5.3951 100.241 5.44151 100.185 5.4764C100.129 5.51128 100.066 5.53384 100 5.54258L97.7834 6.12322C97.7162 6.14917 97.6437 6.15823 97.5722 6.14961C97.5036 6.13955 97.4377 6.1156 97.3787 6.07923C97.3198 6.03628 97.2666 5.98602 97.2203 5.92967C97.1732 5.86807 97.1429 5.79533 97.1323 5.71853L96.7804 3.67747C96.7534 3.55403 96.7749 3.42492 96.8404 3.31685C96.9059 3.20879 97.0104 3.13002 97.1323 3.09683C97.8537 2.89448 98.5751 2.71853 99.3317 2.56897H99.4285C99.5412 2.57075 99.6499 2.61112 99.7364 2.68334C99.8232 2.75854 99.8821 2.86083 99.9036 2.97366L100.405 4.96193C100.423 5.0934 100.395 5.22714 100.326 5.34023Z" fill="#3064C0"/>
<path d="M108.12 4.51321C108.021 4.63347 107.879 4.71195 107.724 4.73315C106.897 4.73315 106.097 4.75955 105.296 4.81233C105.182 4.82198 105.068 4.79419 104.971 4.73315C104.876 4.66759 104.808 4.57112 104.777 4.46043L104.223 2.61292C104.201 2.53885 104.192 2.46139 104.197 2.38418C104.204 2.30542 104.231 2.22981 104.276 2.16424C104.322 2.10092 104.382 2.0496 104.452 2.01468C104.52 1.97963 104.595 1.96152 104.672 1.96189H107.073C107.175 1.95473 107.275 1.98344 107.357 2.04297C107.439 2.1025 107.498 2.18905 107.522 2.28741L108.173 4.02934C108.206 4.10698 108.218 4.1919 108.208 4.27568C108.202 4.36156 108.171 4.44389 108.12 4.51321Z" fill="#4BA0EA"/>
<path d="M109.932 1.82994C109.905 1.86578 109.869 1.89323 109.827 1.90912C109.788 1.92711 109.746 1.93613 109.704 1.93551H108.006C107.946 1.92826 107.889 1.90717 107.839 1.87393C107.789 1.83996 107.752 1.79046 107.733 1.73317L107.381 0.439913C107.372 0.396362 107.372 0.351499 107.381 0.307948C107.39 0.266228 107.408 0.22706 107.434 0.193579C107.454 0.158646 107.485 0.130958 107.522 0.1144C107.557 0.0965152 107.597 0.0874606 107.636 0.0880067H107.733C108.258 0.0792249 108.784 0.0968424 109.308 0.140793C109.361 0.141978 109.412 0.157156 109.457 0.184781C109.502 0.21858 109.535 0.264388 109.554 0.316746L109.976 1.55721C109.992 1.60238 109.996 1.65116 109.985 1.69798C109.978 1.74557 109.96 1.79083 109.932 1.82994Z" fill="#4BA0EA"/>
<path d="M113.091 7.48687C113.048 7.55504 112.987 7.60989 112.915 7.64522C112.845 7.6856 112.767 7.70966 112.686 7.71561C111.824 7.7508 110.953 7.80358 110.065 7.86517C109.95 7.87917 109.834 7.85103 109.739 7.78599C109.646 7.71892 109.578 7.62303 109.546 7.51326L108.965 5.64816C108.941 5.57429 108.935 5.496 108.947 5.41942C108.963 5.34521 108.996 5.27583 109.044 5.21707C109.136 5.09464 109.271 5.01261 109.422 4.98833C110.17 4.93555 110.944 4.93555 111.719 4.93555H112.044C112.143 4.9368 112.239 4.97083 112.317 5.03232C112.399 5.09121 112.46 5.17426 112.493 5.26986L113.144 7.01179C113.173 7.0904 113.185 7.17444 113.179 7.25813C113.168 7.3403 113.138 7.41874 113.091 7.48687Z" fill="#3064C0"/>
<path d="M89.4605 13.2493C89.4695 13.3434 89.4511 13.4381 89.4078 13.522C89.365 13.6074 89.2976 13.6779 89.2142 13.7244C88.0881 14.3842 86.9708 15.1408 85.8711 15.9238V13.047C86.7371 12.3201 87.6448 11.6445 88.5896 11.0235C88.6623 10.9725 88.7474 10.9421 88.8359 10.9355C88.9252 10.9296 89.0142 10.9511 89.091 10.9971C89.1643 11.0383 89.2275 11.0955 89.2758 11.1643C89.3253 11.2344 89.3556 11.3163 89.3638 11.4018L89.4605 13.2493Z" fill="#4BA0EA"/>
<path d="M89.267 9.65983C89.2698 9.75167 89.2486 9.84264 89.2054 9.92376C89.1622 10.0065 89.0946 10.0741 89.0119 10.1173C87.9268 10.8211 86.8799 11.5777 85.8711 12.3871V9.56305C86.6614 8.82135 87.4958 8.12801 88.3696 7.48681C88.4347 7.42589 88.5184 7.38869 88.6072 7.38124C88.6969 7.36985 88.7877 7.39176 88.8623 7.44282C88.9466 7.47824 89.0196 7.53605 89.0734 7.60998C89.1273 7.68449 89.1579 7.77325 89.1614 7.86511L89.267 9.65983Z" fill="#4BA0EA"/>
<path d="M96.3313 6.5807C95.5835 6.83583 94.862 7.10856 94.1318 7.41647C94.06 7.44858 93.9817 7.46363 93.9031 7.46046C93.8253 7.45443 93.75 7.43033 93.6832 7.39008C93.6174 7.34898 93.5606 7.29514 93.516 7.23172C93.4729 7.16552 93.4458 7.09023 93.4368 7.01178L93.2081 4.96193C93.1978 4.85263 93.2192 4.74269 93.2697 4.64521C93.3265 4.55315 93.4091 4.47975 93.5072 4.43407C94.211 4.13495 94.9324 3.82703 95.6538 3.5719H95.8298L96.0849 3.62469C96.2066 3.70862 96.294 3.83353 96.3313 3.97659L96.6832 6.02644C96.6994 6.14549 96.6746 6.26653 96.6128 6.36955C96.5439 6.46821 96.4452 6.5422 96.3313 6.5807Z" fill="#4BA0EA"/>
<path d="M92.9883 7.53962C93.0066 7.64527 92.988 7.75402 92.9355 7.84754C92.8859 7.94128 92.8093 8.01792 92.7156 8.06748C91.959 8.42818 91.1848 8.83287 90.4634 9.25516C90.3906 9.29521 90.3089 9.31621 90.2258 9.31621C90.1428 9.31621 90.0611 9.29521 89.9883 9.25516C89.9062 9.21997 89.836 9.16195 89.7859 9.08801C89.7374 9.01197 89.7128 8.92306 89.7156 8.83287L89.6188 6.90619C89.6092 6.82103 89.6221 6.73485 89.656 6.65616C89.69 6.57748 89.7438 6.509 89.8123 6.45751C90.5425 5.97364 91.2903 5.54255 92.0381 5.13786L92.2581 5.09387L92.5132 5.13786C92.6446 5.23582 92.7329 5.38087 92.7596 5.54255L92.9883 7.53962Z" fill="#4BA0EA"/>
<path d="M81.279 6.58068C80.1846 5.81937 79.0246 5.15693 77.8127 4.60121C76.7099 4.06594 75.5689 3.61309 74.3992 3.24637C73.2619 2.89275 72.1044 2.60778 70.9329 2.393C69.7445 2.19057 68.5465 2.04962 67.3435 1.97071C66.279 1.92672 65.1617 1.90033 64.0444 1.95311C63.9004 1.95155 63.7597 1.99591 63.6426 2.07976C63.5255 2.1636 63.4382 2.28257 63.3934 2.41939L62.3728 5.11147L61.2115 8.26983L60.0239 11.437L58.8626 14.5953L57.6749 17.7625L56.8215 20.0411C56.777 20.1435 56.7589 20.2554 56.7687 20.3666C56.7792 20.4748 56.8122 20.5797 56.8655 20.6745C56.9254 20.768 57.0031 20.8487 57.0942 20.9121C57.1868 20.9718 57.2925 21.008 57.4022 21.0176C58.7394 21.1936 60.0502 21.3871 61.3523 21.6335C62.6544 21.8798 64.5107 22.2669 66.059 22.6628C67.6074 23.0587 69.1822 23.4722 70.7394 23.956C72.2966 24.4399 73.8362 24.9854 75.3934 25.5748C76.9505 26.1643 78.5429 26.7977 80.0913 27.4839C81.6397 28.1701 83.7863 29.1379 85.3611 29.9209V9.57188C84.235 8.52496 82.5459 7.44285 81.279 6.58068Z" fill="#3064C0"/>
<path d="M82.3521 6.47513C81.4349 5.63956 80.4556 4.8749 79.4225 4.18774C78.4733 3.56365 77.4861 2.9995 76.4665 2.49859C75.4691 2.04301 74.4469 1.64356 73.4049 1.30211C72.358 0.967794 70.185 0.519114 70.185 0.519114C69.1893 0.34296 68.1849 0.219621 67.1762 0.149613C67.0416 0.139793 66.9079 0.17712 66.7979 0.255184C66.6845 0.336101 66.6035 0.454536 66.5691 0.589495L65.6278 3.30797L64.5105 6.54551L63.3756 9.78304L62.2319 13.0646L61.097 16.3725L60.27 18.7742C60.225 18.8838 60.2041 19.0018 60.2086 19.1202C60.2132 19.2386 60.2431 19.3546 60.2964 19.4605C60.3471 19.5651 60.4226 19.6557 60.5164 19.7244C60.6043 19.8001 60.7104 19.8517 60.8243 19.874C62.0911 20.1203 63.3228 20.4194 64.5633 20.7361C65.8037 21.0528 67.4929 21.5455 68.9269 22.0382C70.3609 22.5308 71.7598 23.0411 73.141 23.6042C74.5222 24.1672 75.9035 24.8006 77.2583 25.4429C78.6131 26.0851 80.0032 26.8417 81.314 27.5719C82.6249 28.3021 84.0237 29.1379 85.3609 29.9737V9.5719C84.4328 8.46946 83.4274 7.43458 82.3521 6.47513Z" fill="#4BA0EA"/>
</svg>
