<svg width="73" height="16" viewBox="0 0 73 16" fill="none" xmlns="http://www.w3.org/2000/svg">
<g clip-path="url(#clip0_3443_8655)">
<path d="M48.9473 5.49316V7.73316C48.9473 8.69317 48.1473 9.49316 47.1873 9.49316H44.9473V5.49316H48.9473Z" fill="white"/>
<path d="M70.8667 0.0532227H55.3467V10.7199H67.6667C68.84 10.7199 69.8 9.75989 69.8 8.58656V12.7466L55.4 12.6932V15.9999H70.8667C72.04 15.9999 73 15.0932 73 13.8666V2.18656C73 1.01322 72.0934 0.0532227 70.8667 0.0532227ZM69.7467 7.35989H58.6V3.41322H69.7467V7.35989Z" fill="white"/>
<path d="M16.4135 3.4668V13.8668C16.4135 15.0401 15.4535 16.0001 14.2268 16.0001H13.1068V13.8668C13.1068 15.0401 12.1468 16.0001 10.9201 16.0001H0.466797V12.6935H13.1068V3.4668H16.4135Z" fill="white"/>
<path d="M21.5332 0.0532227V13.8666C21.5332 15.0399 20.6266 15.9999 19.3999 15.9999H18.2266V0.0532227H21.5332Z" fill="white"/>
<path d="M53.4265 12.6398V15.9997H37.9599C36.7865 15.9997 35.8265 15.0931 35.8265 13.8664C35.8265 15.0397 34.9199 15.9997 33.6932 15.9997H23.1865V12.6931H35.7732V6.71975H25.4265C24.2532 6.71975 23.2932 5.81309 23.2932 4.58642V3.41309H39.0799V12.6931L53.4265 12.6398Z" fill="white"/>
</g>
<defs>
<clipPath id="clip0_3443_8655">
<rect width="72.5333" height="16" fill="white" transform="translate(0.466797)"/>
</clipPath>
</defs>
</svg>
